<svg width="992" height="992" viewBox="0 0 992 992" fill="none" xmlns="http://www.w3.org/2000/svg">
<path d="M402.618 440.428H402.189C396.996 449.197 388.337 453.302 378.268 453.302C366.902 453.302 357.481 448.97 350.879 441.837C343.953 434.372 340.268 423.878 340.268 411.539C340.268 398.56 344.601 387.192 352.5 379.621C358.996 373.241 367.875 369.452 379.345 369.452C399.046 369.452 410.516 379.945 413.441 395.094H398.284C396.121 387.629 390.273 382.002 379.556 382.002C363.209 382.002 355.521 394.876 355.521 411.539C355.521 428.202 365.047 440.752 379.556 440.752C393.084 440.752 400.228 431.554 400.342 421.279V420.308H380.86V408.624H414.745V451.472H404.676L402.618 440.436V440.428Z" fill="#F5F5F5"/>
<path d="M420.083 411.425C420.083 387.297 435.345 369.443 459.703 369.443C484.062 369.443 499.323 387.297 499.323 411.425C499.323 435.554 484.062 453.294 459.703 453.294C435.345 453.294 420.083 435.44 420.083 411.425ZM483.948 411.425C483.948 394.657 475.718 381.783 459.808 381.783C443.899 381.783 435.345 394.657 435.345 411.425C435.345 428.194 443.785 440.638 459.808 440.638C475.832 440.638 483.948 428.088 483.948 411.425Z" fill="#F5F5F5"/>
<path d="M502.839 411.425C502.839 387.297 518.101 369.443 542.46 369.443C566.818 369.443 582.08 387.297 582.08 411.425C582.08 435.554 566.818 453.294 542.46 453.294C518.101 453.294 502.839 435.44 502.839 411.425ZM566.705 411.425C566.705 394.657 558.474 381.783 542.565 381.783C526.655 381.783 518.101 394.657 518.101 411.425C518.101 428.194 526.542 440.638 542.565 440.638C558.588 440.638 566.705 428.088 566.705 411.425Z" fill="#F5F5F5"/>
<path d="M589.208 370.966H620.922C644.195 370.966 657.512 387.192 657.512 411.644C657.512 436.096 644.414 451.456 620.063 451.456H589.216V370.958L589.208 370.966ZM619.083 438.695C634.993 438.695 642.138 428.526 642.138 411.644C642.138 394.762 635.317 383.726 619.512 383.726H604.251V438.687H619.083V438.695Z" fill="#F5F5F5"/>
<path d="M198.653 461.162H213.364C213.753 461.162 214.109 461.405 214.239 461.778L242.891 540.406C243.118 541.013 242.664 541.661 242.016 541.661H228.002C227.597 541.661 227.24 541.401 227.119 541.021L221.157 523.151C221.027 522.771 220.671 522.512 220.266 522.512H191.087C190.682 522.512 190.334 522.771 190.204 523.143L184.137 541.021C184.007 541.401 183.651 541.652 183.254 541.652H170.107C169.459 541.652 169.005 541.005 169.224 540.397L197.77 461.77C197.9 461.397 198.256 461.154 198.653 461.154M195.413 511.468H215.972C216.612 511.468 217.058 510.844 216.855 510.237L211.096 492.853C207.953 483.331 206.009 473.486 206.009 473.486H205.79C205.79 473.486 203.084 485.169 200.484 492.853L194.522 510.229C194.311 510.836 194.765 511.468 195.405 511.468" fill="#F5F5F5"/>
<path d="M247.986 461.164H303.273C303.792 461.164 304.205 461.585 304.205 462.095V473.098C304.205 473.617 303.784 474.029 303.273 474.029H262.924C262.406 474.029 261.992 474.45 261.992 474.961V493.753C261.992 494.271 262.414 494.684 262.924 494.684H296.234C296.752 494.684 297.165 495.105 297.165 495.624V506.198C297.165 506.716 296.744 507.129 296.234 507.129H262.924C262.406 507.129 261.992 507.55 261.992 508.06V540.706C261.992 541.225 261.571 541.638 261.061 541.638H247.995C247.476 541.638 247.063 541.217 247.063 540.706V462.079C247.063 461.56 247.484 461.147 247.995 461.147" fill="#F5F5F5"/>
<path d="M307.769 461.162H371.278C371.797 461.162 372.21 461.583 372.21 462.093V473.097C372.21 473.615 371.789 474.028 371.278 474.028H347.924C347.406 474.028 346.992 474.449 346.992 474.959V540.713C346.992 541.231 346.571 541.644 346.061 541.644H332.881C332.363 541.644 331.95 541.223 331.95 540.713V474.959C331.95 474.441 331.528 474.028 331.018 474.028H307.777C307.259 474.028 306.846 473.607 306.846 473.097V462.093C306.846 461.575 307.267 461.162 307.777 461.162" fill="#F5F5F5"/>
<path d="M377.49 461.163H434.511C435.029 461.163 435.442 461.584 435.442 462.094V472.992C435.442 473.51 435.021 473.923 434.511 473.923H392.428C391.909 473.923 391.496 474.344 391.496 474.854V492.894C391.496 493.412 391.917 493.833 392.428 493.833H429.415C429.934 493.833 430.347 494.254 430.347 494.764V504.901C430.347 505.42 429.926 505.841 429.415 505.841H392.428C391.909 505.841 391.496 506.262 391.496 506.772V527.621C391.496 528.139 391.917 528.552 392.428 528.552H435.483C436.001 528.552 436.422 528.973 436.422 529.483V540.705C436.422 541.224 436.001 541.637 435.483 541.637H377.49C376.972 541.637 376.559 541.216 376.559 540.705V462.078C376.559 461.559 376.98 461.146 377.49 461.146" fill="#F5F5F5"/>
<path d="M442.977 462.094C442.977 461.575 443.398 461.154 443.908 461.154H480.969C496.02 461.154 506.842 469.704 506.842 483.769C506.842 493.396 502.508 500.326 492.01 503.679V504.002C500.564 506.602 503.699 511.468 504.566 521.419C505.862 533.216 505.975 539.814 508.138 540.891V541.652H493.314C493.055 541.652 492.812 541.555 492.633 541.369C490.924 539.588 490.876 533.434 490.057 523.265C489.191 513.743 484.752 509.63 475.12 509.63H458.846C458.327 509.63 457.914 510.051 457.914 510.561V540.721C457.914 541.24 457.493 541.652 456.983 541.652H443.916C443.398 541.652 442.985 541.231 442.985 540.721V462.094H442.977ZM457.914 497.225C457.914 497.744 458.335 498.157 458.846 498.157H477.396C486.817 498.157 491.791 493.396 491.791 485.93C491.791 477.923 487.571 473.38 477.939 473.38H458.846C458.327 473.38 457.914 473.801 457.914 474.312V497.217V497.225Z" fill="#F5F5F5"/>
<path d="M516.109 461.162H530.034C530.358 461.162 530.65 461.324 530.828 461.599L557.293 503.363C561.627 510.399 567.362 522.082 567.362 522.082H567.686C567.686 522.082 566.819 509.532 566.819 501.525V462.101C566.819 461.583 567.24 461.17 567.751 461.17H580.064C580.582 461.17 580.995 461.591 580.995 462.101V540.729C580.995 541.247 580.574 541.66 580.064 541.66H566.138C565.814 541.66 565.523 541.498 565.353 541.223L539.001 499.679C534.562 492.537 528.827 480.854 528.827 480.854H528.608C528.608 480.854 529.362 493.403 529.362 501.411V540.721C529.362 541.239 528.94 541.652 528.43 541.652H516.117C515.599 541.652 515.186 541.231 515.186 540.721V462.093C515.186 461.575 515.607 461.162 516.117 461.162" fill="#F5F5F5"/>
<path d="M587.954 501.623C587.954 477.495 603.216 459.642 627.574 459.642C651.933 459.642 667.194 477.495 667.194 501.623C667.194 525.752 651.933 543.492 627.574 543.492C603.216 543.492 587.954 525.638 587.954 501.623ZM651.819 501.623C651.819 484.855 643.589 471.981 627.68 471.981C611.77 471.981 603.216 484.855 603.216 501.623C603.216 518.392 611.657 530.837 627.68 530.837C643.703 530.837 651.819 518.287 651.819 501.623Z" fill="#F5F5F5"/>
<path d="M670.709 501.622C670.709 477.494 685.971 459.641 710.329 459.641C734.688 459.641 749.949 477.494 749.949 501.622C749.949 525.751 734.688 543.491 710.329 543.491C685.971 543.491 670.709 525.637 670.709 501.622ZM734.574 501.622C734.574 484.854 726.344 471.98 710.434 471.98C694.525 471.98 685.971 484.854 685.971 501.622C685.971 518.391 694.411 530.836 710.434 530.836C726.457 530.836 734.574 518.286 734.574 501.622Z" fill="#F5F5F5"/>
<path d="M757.953 461.162H771.878C772.202 461.162 772.494 461.324 772.664 461.599L799.129 503.363C803.462 510.399 809.198 522.082 809.198 522.082H809.522C809.522 522.082 808.655 509.532 808.655 501.525V462.101C808.655 461.583 809.076 461.17 809.587 461.17H821.9C822.418 461.17 822.831 461.591 822.831 462.101V540.729C822.831 541.247 822.41 541.66 821.9 541.66H807.974C807.65 541.66 807.359 541.498 807.189 541.223L780.837 499.679C776.398 492.537 770.663 480.854 770.663 480.854H770.444C770.444 480.854 771.198 493.403 771.198 501.411V540.721C771.198 541.239 770.776 541.652 770.266 541.652H757.953C757.435 541.652 757.021 541.231 757.021 540.721V462.093C757.021 461.575 757.443 461.162 757.953 461.162Z" fill="#F5F5F5"/>
<path d="M373.652 602.064H371.108C370.541 602.064 370.039 602.428 369.853 602.963C366.556 612.298 360.124 617.431 351.74 617.431C344.805 617.431 339.556 614.371 335.708 608.063C331.893 601.74 329.957 593.4 329.957 583.287C329.957 573.952 331.569 566.98 334.744 562.551C337.863 558.212 342.197 556.009 347.624 556.009C356.033 556.009 362.384 561.151 367.042 571.733C367.26 572.227 367.738 572.543 368.265 572.543H372.088C372.534 572.543 372.947 572.324 373.198 571.96C373.449 571.604 373.498 571.142 373.344 570.737C371.708 566.454 370.339 560.973 369.261 554.438C369.205 554.082 369.002 553.758 368.71 553.548C368.419 553.337 368.07 553.264 367.722 553.321C366.458 553.548 365.3 553.661 364.279 553.661C362.23 553.661 359.662 553.273 356.665 552.511C353.457 551.694 350.524 551.281 347.948 551.281C338.43 551.281 330.581 554.633 324.611 561.24C318.648 567.782 315.627 576.3 315.627 586.55C315.627 596.801 318.738 605.667 324.878 612.444C331.01 619.156 339.094 622.557 348.904 622.557C356.389 622.557 362.36 620.622 366.669 616.8C370.646 613.229 373.433 608.841 374.964 603.756C375.086 603.351 375.005 602.93 374.753 602.59C374.502 602.25 374.097 602.048 373.668 602.048" fill="#F5F5F5"/>
<path d="M420.797 572.519C420.797 567.847 416.99 564.827 411.093 564.827C403.737 564.827 398.067 569.612 394.227 579.061L396.382 568.114C396.431 567.855 396.414 567.588 396.317 567.353C395.896 566.292 395.167 565.515 394.162 565.045C393.782 564.867 393.32 564.9 392.939 565.134C388.541 567.847 383.445 569.774 377.799 570.867C377.167 570.988 376.714 571.539 376.714 572.17V573.425C376.714 573.798 376.868 574.154 377.143 574.405C377.418 574.656 377.791 574.786 378.164 574.761C380.027 574.616 381.323 574.899 382.117 575.644C382.854 576.324 383.21 577.425 383.21 579.02V613.618C383.21 615.432 381.412 616.614 377.872 617.124C377.2 617.221 376.706 617.78 376.706 618.452V619.666C376.706 620.039 376.851 620.379 377.119 620.63C377.386 620.881 377.734 621.01 378.107 620.994C385.924 620.638 393.984 620.638 402.069 620.994C402.093 620.994 402.109 620.994 402.133 620.994C402.482 620.994 402.806 620.864 403.057 620.622C403.324 620.371 403.47 620.022 403.47 619.658V618.435C403.47 617.763 402.984 617.213 402.32 617.108C399.59 616.695 396.341 615.755 396.341 613.602V583.741C396.341 583.741 396.341 583.668 396.35 583.627C396.674 581.749 397.589 579.563 399.08 577.158C400.602 574.729 402.474 573.547 404.815 573.547C406.2 573.547 407.755 574.324 409.57 575.927C411.506 577.644 413.337 578.51 415.013 578.51C418.424 578.51 420.814 576.041 420.814 572.502" fill="#F5F5F5"/>
<path d="M443.674 565.094C436.788 565.094 430.778 567.677 425.788 572.77C420.871 577.838 418.384 584.883 418.384 593.708C418.384 602.534 420.911 609.553 425.901 614.646C430.907 619.707 437.258 622.265 444.792 622.265C453.686 622.217 460.07 618.589 463.772 611.497C463.99 611.076 463.982 610.574 463.731 610.161C463.488 609.756 463.059 609.513 462.589 609.513H461.066C460.564 609.513 460.102 609.796 459.875 610.258C457.34 615.302 453.176 617.861 447.489 617.861C442.516 617.861 438.805 615.764 436.157 611.448C433.645 607.367 432.317 601.926 432.203 595.279C432.203 595.133 432.252 595.004 432.357 594.898C432.463 594.793 432.592 594.736 432.738 594.736H459.851C464.12 594.736 465.862 592.583 465.862 587.304C465.862 580.81 463.723 575.434 459.503 571.329C455.25 567.191 449.928 565.086 443.682 565.086M435.217 574.972C437.218 571.175 439.956 569.321 443.577 569.321C449.936 569.321 453.225 576.292 453.37 590.048C453.37 590.194 453.314 590.324 453.217 590.429C453.119 590.534 452.982 590.591 452.844 590.591H432.746C432.6 590.591 432.471 590.534 432.365 590.429C432.268 590.324 432.212 590.194 432.212 590.048C432.301 583.611 433.313 578.543 435.225 574.964" fill="#F5F5F5"/>
<path d="M518.75 616.063C514.911 615.715 513.347 613.869 513.347 609.707V582.348C513.347 575.928 512.027 571.402 509.427 568.908C506.891 566.374 502.622 565.094 496.725 565.094C489.329 565.094 483.383 566.479 478.555 569.321C473.687 572.13 471.216 575.644 471.216 579.757C471.216 583.603 473.233 585.547 477.227 585.547C479.713 585.547 481.487 584.607 482.492 582.753C483.496 581.013 484.072 579.118 484.234 576.98C484.387 575.029 485.133 573.248 486.518 571.555C487.863 569.912 489.985 569.118 493.023 569.118C496.061 569.118 497.972 570.001 498.904 571.806C499.868 573.628 500.338 577.005 500.338 582.13V586.348C500.338 586.591 500.159 586.81 499.916 586.866C488.057 589.506 479.689 592.453 475.039 595.635C470.26 598.914 467.838 603.133 467.838 608.169C467.838 613.205 469.401 616.622 472.496 618.954C475.606 621.245 479.146 622.363 483.302 622.363C487.458 622.363 491.435 621.237 494.538 619.011C497.43 616.881 499.617 614.598 501.05 612.226L500.573 619.318C500.556 619.545 500.597 619.772 500.686 619.966C501.172 621.051 501.958 621.82 503.027 622.233C503.27 622.33 503.546 622.347 503.821 622.282C508.519 621.14 513.525 620.42 518.702 620.136C519.415 620.096 519.974 619.513 519.974 618.808V617.399C519.974 616.711 519.447 616.128 518.767 616.072M500.346 591.206V606.598C500.346 606.679 500.33 606.76 500.297 606.833C499.39 608.841 497.883 610.906 495.818 612.97C493.719 615.068 491.33 616.128 488.705 616.128C484.169 616.128 481.236 612.639 481.236 607.238C481.236 599.425 487.441 593.862 499.681 590.704C499.722 590.696 499.771 590.688 499.811 590.688C499.925 590.688 500.038 590.729 500.135 590.802C500.265 590.907 500.346 591.061 500.346 591.223" fill="#F5F5F5"/>
<path d="M548.423 566.041H537.981C537.69 566.041 537.455 565.806 537.455 565.515V552.649C537.455 551.912 536.855 551.313 536.118 551.313H533.923C533.275 551.313 532.724 551.775 532.611 552.422C531.76 557.029 530.31 560.487 528.301 562.697C526.349 564.794 523.595 565.887 519.876 566.033C519.147 566.065 518.572 566.648 518.572 567.369V569.215C518.572 569.952 519.172 570.551 519.909 570.551H523.902C524.194 570.551 524.429 570.786 524.429 571.077V606.484C524.429 616.354 529.419 621.787 538.467 621.787C538.557 621.787 538.654 621.787 538.743 621.787C543.271 621.787 546.843 620.549 549.363 618.095C549.622 617.844 549.768 617.496 549.768 617.124V615.78C549.768 615.278 549.492 614.824 549.047 614.597C548.609 614.363 548.083 614.403 547.678 614.678C546.106 615.771 544.381 616.322 542.542 616.322C541.214 616.338 540.128 615.958 539.326 615.172C538.087 613.95 537.455 611.715 537.455 608.541V571.077C537.455 570.786 537.69 570.551 537.981 570.551H548.423C549.16 570.551 549.76 569.952 549.76 569.215V567.385C549.76 566.648 549.16 566.049 548.423 566.049" fill="#F5F5F5"/>
<path d="M577.253 617.116C573.632 616.565 571.801 615.383 571.801 613.61V582.34C571.85 575.223 572.06 570.567 572.433 568.106C572.474 567.822 572.433 567.539 572.303 567.296C571.777 566.276 571.056 565.523 570.165 565.053C569.784 564.859 569.322 564.883 568.925 565.11C564.357 567.79 559.156 569.725 553.469 570.851C552.846 570.972 552.384 571.523 552.384 572.154V573.425C552.384 573.79 552.538 574.146 552.805 574.397C553.073 574.648 553.437 574.778 553.802 574.753C555.495 574.648 556.758 574.98 557.56 575.725C558.297 576.421 558.678 577.522 558.678 578.988V613.585C558.678 615.399 556.88 616.581 553.34 617.091C552.668 617.188 552.173 617.747 552.173 618.419V619.634C552.173 619.998 552.319 620.346 552.586 620.597C552.838 620.84 553.162 620.97 553.51 620.97C553.534 620.97 553.55 620.97 553.575 620.97C561.368 620.613 569.249 620.613 577.01 620.97C577.374 620.978 577.731 620.856 577.998 620.605C578.265 620.354 578.411 620.006 578.411 619.642V618.419C578.411 617.755 577.925 617.197 577.261 617.091" fill="#F5F5F5"/>
<path d="M564.892 559.993C566.852 559.993 568.496 559.313 569.776 557.969C571.121 556.633 571.793 554.989 571.793 553.086C571.793 551.184 571.113 549.548 569.776 548.212C568.488 546.868 566.844 546.188 564.883 546.188C562.923 546.188 561.343 546.868 559.991 548.212C558.686 549.572 558.03 551.208 558.03 553.086C558.03 554.965 558.695 556.609 559.999 557.969C561.335 559.313 562.98 559.993 564.883 559.993" fill="#F5F5F5"/>
<path d="M632.119 570.066C632.791 569.985 633.293 569.41 633.293 568.738V567.377C633.293 566.641 632.694 566.042 631.957 566.042H611.421C610.684 566.042 610.085 566.641 610.085 567.377V568.681C610.085 569.385 610.636 569.977 611.34 570.017L613.722 570.171C615.925 570.406 617.416 571.07 618.137 572.163C618.793 573.142 618.858 574.519 618.339 576.252L609.259 605.465C609.178 605.732 608.943 605.837 608.756 605.837C608.578 605.861 608.335 605.748 608.246 605.481L598.234 576.033C597.472 573.75 597.399 572.114 598.007 571.167C598.38 570.592 599.011 570.268 599.943 570.171L601.571 570.033C602.268 569.977 602.802 569.402 602.802 568.697V567.377C602.802 566.641 602.203 566.042 601.458 566.042H578.225C577.488 566.042 576.88 566.641 576.88 567.377V568.713C576.88 569.402 577.399 569.977 578.087 570.041L579.311 570.163C582.502 570.487 584.001 571.976 585.467 576.284L601.045 620.452C601.231 620.986 601.741 621.342 602.308 621.342H607.622C608.206 621.342 608.716 620.97 608.902 620.411L623.014 576.486C624.277 572.738 627.048 570.608 631.244 570.155L632.119 570.049V570.066Z" fill="#F5F5F5"/>
<path d="M642.876 594.736H669.989C674.258 594.736 675.992 592.583 675.992 587.304C675.992 580.81 673.853 575.434 669.633 571.329C665.38 567.183 660.058 565.086 653.812 565.086C646.935 565.086 640.916 567.669 635.926 572.762C631.009 577.838 628.522 584.874 628.522 593.7C628.522 602.525 631.049 609.545 636.039 614.638C641.046 619.691 647.405 622.257 654.93 622.257C663.825 622.209 670.208 618.581 673.91 611.489C674.129 611.068 674.112 610.566 673.869 610.161C673.626 609.756 673.197 609.513 672.727 609.513H671.204C670.702 609.513 670.24 609.796 670.013 610.258C667.478 615.302 663.314 617.861 657.628 617.861C652.654 617.861 648.944 615.764 646.295 611.448C643.792 607.367 642.463 601.934 642.35 595.279C642.35 595.141 642.398 595.004 642.504 594.898C642.609 594.793 642.739 594.736 642.884 594.736M642.35 590.056C642.439 583.619 643.451 578.551 645.363 574.972C647.364 571.175 650.102 569.321 653.723 569.321C660.082 569.321 663.371 576.292 663.509 590.048C663.509 590.194 663.452 590.324 663.355 590.429C663.249 590.534 663.12 590.591 662.974 590.591H642.876C642.731 590.591 642.601 590.534 642.496 590.429C642.398 590.324 642.342 590.194 642.342 590.048" fill="#F5F5F5"/>
</svg>
