<svg width="20" height="19" viewBox="0 0 20 19" fill="none" xmlns="http://www.w3.org/2000/svg">
<g clip-path="url(#clip0_79_412)">
<path fill-rule="evenodd" clip-rule="evenodd" d="M1.86927 12.7206C0.837049 11.9128 0.32094 11.5088 0.127567 11.0431L0 10.4087V7.80956H0.650796V9.10263C0.935604 8.83556 1.33271 8.52476 1.86927 8.10485L7.02991 4.06611C8.06213 3.25828 8.57822 2.85437 9.17338 2.70303C9.69689 2.56992 10.2608 2.56992 10.7843 2.70303C11.3794 2.85437 11.8956 3.25828 12.9278 4.06611L18.0884 8.10485C18.625 8.52476 19.0221 8.83556 19.3069 9.10263V7.80956H19.9577V10.4127C19.9577 10.6255 19.9152 10.8382 19.8301 11.0431C19.6367 11.5088 19.1206 11.9128 18.0884 12.7206L12.9278 16.7593C11.8956 17.5672 11.3794 17.9711 10.7843 18.1224C10.2608 18.2555 9.69689 18.2555 9.17338 18.1224C8.57822 17.9711 8.06213 17.5672 7.02991 16.7593L1.86927 12.7206Z" fill="#737373" fill-opacity="0.5"/>
<path d="M1.86928 10.1174C0.837058 9.30955 0.320944 8.90564 0.127572 8.43987C-0.0425239 8.03018 -0.0425239 7.58884 0.127572 7.17915C0.320944 6.71342 0.837058 6.30951 1.86928 5.50164L7.02991 1.46291C8.06213 0.655089 8.57822 0.251174 9.17338 0.0998387C9.69689 -0.0332795 10.2608 -0.0332795 10.7843 0.0998387C11.3794 0.251174 11.8956 0.655089 12.9278 1.46292L18.0884 5.50164C19.1206 6.30951 19.6367 6.71342 19.8301 7.17915C20.0002 7.58884 20.0002 8.03018 19.8301 8.43987C19.6367 8.90564 19.1206 9.30955 18.0884 10.1174L12.9278 14.1561C11.8956 14.964 11.3794 15.3679 10.7843 15.5192C10.2608 15.6523 9.69689 15.6523 9.17338 15.5192C8.57822 15.3679 8.06213 14.964 7.02991 14.1561L1.86928 10.1174Z" fill="#A3A3A3" fill-opacity="0.5"/>
<path d="M7.76716 5.11703C7.25103 4.71312 6.99298 4.51116 6.89627 4.27828C6.81125 4.07343 6.81125 3.85277 6.89627 3.64792C6.99298 3.41504 7.25103 3.21308 7.76716 2.80917L8.50436 2.23221C9.02049 1.82829 9.27854 1.62633 9.57609 1.55067C9.83787 1.48411 10.1198 1.48411 10.3816 1.55067C10.6792 1.62633 10.9372 1.82829 11.4533 2.23221L12.1905 2.80917C12.7067 3.21308 12.9647 3.41504 13.0614 3.64792C13.1464 3.85277 13.1464 4.07343 13.0614 4.27828C12.9647 4.51116 12.7067 4.71312 12.1905 5.11703L11.4533 5.69401C10.9372 6.09792 10.6792 6.29987 10.3816 6.37552C10.1198 6.44209 9.83787 6.44209 9.57609 6.37552C9.27854 6.29987 9.02049 6.09792 8.50436 5.69401L7.76716 5.11703Z" fill="#F5F5F5" fill-opacity="0.5"/>
<path d="M12.682 8.96347C12.1659 8.55956 11.9079 8.3576 11.8112 8.12472C11.7261 7.91987 11.7261 7.69921 11.8112 7.49436C11.9079 7.26147 12.1659 7.05952 12.682 6.65561L13.4192 6.07863C13.9354 5.67472 14.1934 5.47276 14.491 5.39712C14.7528 5.33054 15.0347 5.33054 15.2964 5.39712C15.594 5.47276 15.8521 5.67472 16.3682 6.07863L17.1054 6.65561C17.6215 7.05952 17.8796 7.26147 17.9763 7.49436C18.0613 7.69921 18.0613 7.91987 17.9763 8.12472C17.8796 8.3576 17.6215 8.55956 17.1054 8.96347L16.3682 9.54041C15.8521 9.94432 15.594 10.1463 15.2964 10.222C15.0347 10.2885 14.7528 10.2885 14.491 10.222C14.1934 10.1463 13.9354 9.94432 13.4192 9.54041L12.682 8.96347Z" fill="#F5F5F5" fill-opacity="0.5"/>
<path d="M2.85225 8.96347C2.33614 8.55956 2.07809 8.3576 1.9814 8.12472C1.89636 7.91987 1.89636 7.69921 1.9814 7.49436C2.07809 7.26147 2.33614 7.05952 2.85225 6.65561L3.58949 6.07863C4.1056 5.67472 4.36365 5.47276 4.66125 5.39712C4.92298 5.33054 5.20493 5.33054 5.46667 5.39712C5.76427 5.47276 6.02231 5.67472 6.5384 6.07863L12.1905 10.502C12.7067 10.906 12.9647 11.1079 13.0614 11.3408C13.1464 11.5456 13.1464 11.7663 13.0614 11.9711C12.9647 12.204 12.7067 12.406 12.1905 12.8099L11.4533 13.3868C10.9372 13.7908 10.6792 13.9927 10.3816 14.0684C10.1198 14.1349 9.83787 14.1349 9.57609 14.0684C9.27853 13.9927 9.02049 13.7908 8.50436 13.3868L2.85225 8.96347Z" fill="#F5F5F5" fill-opacity="0.5"/>
</g>
<defs>
<clipPath id="clip0_79_412">
<rect width="20" height="18.2222" fill="white"/>
</clipPath>
</defs>
</svg>