<svg width="25" height="25" viewBox="0 0 25 25" fill="none" xmlns="http://www.w3.org/2000/svg">
<path d="M18.2847 3.43896C17.489 3.43896 16.726 3.75504 16.1633 4.31764C15.6007 4.88025 15.2847 5.64332 15.2847 6.43896V18.439C15.2847 19.2346 15.6007 19.9977 16.1633 20.5603C16.726 21.1229 17.489 21.439 18.2847 21.439C19.0803 21.439 19.8434 21.1229 20.406 20.5603C20.9686 19.9977 21.2847 19.2346 21.2847 18.439C21.2847 17.6433 20.9686 16.8803 20.406 16.3176C19.8434 15.755 19.0803 15.439 18.2847 15.439H6.28467C5.48902 15.439 4.72596 15.755 4.16335 16.3176C3.60074 16.8803 3.28467 17.6433 3.28467 18.439C3.28467 19.2346 3.60074 19.9977 4.16335 20.5603C4.72596 21.1229 5.48902 21.439 6.28467 21.439C7.08032 21.439 7.84338 21.1229 8.40599 20.5603C8.9686 19.9977 9.28467 19.2346 9.28467 18.439V6.43896C9.28467 5.64332 8.9686 4.88025 8.40599 4.31764C7.84338 3.75504 7.08032 3.43896 6.28467 3.43896C5.48902 3.43896 4.72596 3.75504 4.16335 4.31764C3.60074 4.88025 3.28467 5.64332 3.28467 6.43896C3.28467 7.23461 3.60074 7.99768 4.16335 8.56029C4.72596 9.12289 5.48902 9.43896 6.28467 9.43896H18.2847C19.0803 9.43896 19.8434 9.12289 20.406 8.56029C20.9686 7.99768 21.2847 7.23461 21.2847 6.43896C21.2847 5.64332 20.9686 4.88025 20.406 4.31764C19.8434 3.75504 19.0803 3.43896 18.2847 3.43896Z" stroke="#737373" stroke-width="2" stroke-linecap="round" stroke-linejoin="round"/>
</svg>
