<svg width="18" height="18" viewBox="0 0 18 18" fill="none" xmlns="http://www.w3.org/2000/svg">
<path d="M6.1962 14.9559C6.44754 15.1992 6.26918 15.6188 5.91244 15.6188H3.66665C3.45734 15.6214 3.2555 15.541 3.10541 15.395C2.95532 15.2492 2.86923 15.0497 2.86603 14.8403V12.6676C2.86603 12.3189 3.29775 12.1466 3.55111 12.3919L6.1962 14.9559Z" fill="white"/>
<path d="M9.70067 15.1241C9.54315 14.9678 9.4182 14.7818 9.3329 14.5769C9.24759 14.3721 9.20367 14.1523 9.20367 13.9303C9.20367 13.7084 9.24759 13.4887 9.3329 13.2837C9.4182 13.0789 9.54315 12.8928 9.70067 12.7365L12.0965 10.3569C12.4161 10.0398 12.8481 9.86183 13.2984 9.86183C13.7486 9.86183 14.1807 10.0398 14.5004 10.3569C14.6578 10.5133 14.7828 10.6993 14.8681 10.9042C14.9534 11.1091 14.9974 11.3288 14.9974 11.5508C14.9974 11.7727 14.9534 11.9924 14.8681 12.1973C14.7828 12.4022 14.6578 12.5882 14.5004 12.7446L12.1045 15.1241C11.7849 15.4413 11.3529 15.6192 10.9026 15.6192C10.4523 15.6192 10.0203 15.4413 9.70067 15.1241Z" fill="white"/>
<path d="M3.37274 9.14281C3.21525 8.98641 3.09025 8.80046 3.00495 8.59553C2.91965 8.39066 2.87573 8.17088 2.87573 7.949C2.87573 7.72704 2.91965 7.50726 3.00495 7.3024C3.09025 7.09753 3.21525 6.91151 3.37274 6.75514L7.40423 2.74798C7.72389 2.43087 8.15589 2.25293 8.60617 2.25293C9.05645 2.25293 9.48845 2.43087 9.80811 2.74798C9.96562 2.90435 10.0906 3.09034 10.1759 3.29523C10.2612 3.50013 10.3051 3.71988 10.3051 3.94182C10.3051 4.16376 10.2612 4.3835 10.1759 4.58839C10.0906 4.79329 9.96562 4.97928 9.80811 5.13565L5.7746 9.14281C5.45503 9.45932 5.02345 9.63687 4.57368 9.63687C4.1239 9.63687 3.69232 9.45932 3.37274 9.14281Z" fill="white"/>
<path d="M6.66846 12.0007C6.51096 11.8444 6.38596 11.6583 6.30066 11.4535C6.21536 11.2486 6.17145 11.0288 6.17145 10.8069C6.17145 10.5849 6.21536 10.3652 6.30066 10.1603C6.38596 9.9554 6.51096 9.76945 6.66846 9.61305L12.1147 4.20126C12.4344 3.88415 12.8664 3.70621 13.3166 3.70621C13.7669 3.70621 14.1989 3.88415 14.5186 4.20126C14.676 4.35763 14.8011 4.54362 14.8864 4.74852C14.9717 4.95341 15.0156 5.17316 15.0156 5.3951C15.0156 5.61704 14.9717 5.83678 14.8864 6.04167C14.8011 6.24657 14.676 6.43256 14.5186 6.58893L9.07235 12.0007C8.7527 12.3178 8.3207 12.4958 7.87042 12.4958C7.42014 12.4958 6.98812 12.3178 6.66846 12.0007Z" fill="white"/>
</svg>
