<svg width="24" height="24" viewBox="0 0 20 21" fill="none" xmlns="http://www.w3.org/2000/svg">
<g clip-path="url(#clip0_79_398)">
<path d="M6.6176e-05 11.7691L0.0498954 4.26948C0.0589157 2.91192 1.00799 1.74893 2.31889 1.48909L9.56062 0.0536768C11.3009 -0.291265 12.9157 1.07039 12.9038 2.87259L12.8539 10.3721C12.8449 11.7297 11.8959 12.8927 10.585 13.1526L3.34323 14.5879C1.60298 14.9329 -0.0119081 13.5712 6.6176e-05 11.7691Z" fill="#737373" fill-opacity="0.2"/>
<path d="M3.54816 14.7607L3.59799 7.26118C3.60701 5.90362 4.55609 4.74063 5.86698 4.48079L13.1087 3.04537C14.849 2.70044 16.4639 4.06209 16.4519 5.86429L16.4021 13.3639C16.3931 14.7214 15.4439 15.8844 14.1331 16.1442L6.89131 17.5797C5.15107 17.9246 3.53619 16.5629 3.54816 14.7607Z" fill="#737373" fill-opacity="0.5"/>
<path d="M7.09618 17.7524L7.14606 10.2529C7.15506 8.89525 8.10412 7.73231 9.41499 7.47244L16.6567 6.03705C18.397 5.6921 20.0119 7.05375 19.9999 8.85594L19.9501 16.3555C19.9411 17.7131 18.992 18.8761 17.6811 19.1359L10.4394 20.5713C8.69912 20.9163 7.08424 19.5546 7.09618 17.7524Z" fill="#737373" fill-opacity="0.8"/>
</g>
<defs>
<clipPath id="clip0_79_398">
<rect width="20" height="20.625" fill="white"/>
</clipPath>
</defs>
</svg>