<svg width="20" height="20" viewBox="0 0 20 20" fill="none" xmlns="http://www.w3.org/2000/svg">
<path d="M19.1666 2.50002C18.3686 3.06292 17.485 3.49344 16.5499 3.77502C16.048 3.19794 15.381 2.78893 14.6391 2.60329C13.8972 2.41765 13.1162 2.46435 12.4017 2.73706C11.6871 3.00978 11.0736 3.49535 10.6441 4.12812C10.2145 4.76088 9.98967 5.5103 9.99992 6.27502V7.10835C8.53545 7.14632 7.08431 6.82153 5.77576 6.16289C4.46721 5.50425 3.34185 4.53221 2.49992 3.33335C2.49992 3.33335 -0.833415 10.8334 6.66659 14.1667C4.95036 15.3317 2.90588 15.9158 0.833252 15.8334C8.33325 20 17.4999 15.8334 17.4999 6.25002C17.4992 6.0179 17.4768 5.78635 17.4333 5.55835C18.2838 4.7196 18.8839 3.66061 19.1666 2.50002Z" stroke="#737373" stroke-linecap="round" stroke-linejoin="round"/>
</svg>
